# xmcd
#
# Track frame offsets:
#	150
#	15599
#	26536
#	37551
#	49645
#	57674
#	70691
#	85720
#	98825
#	111303
#	122414
#	135031
#	146403
#	159899
#	175695
#	193153
#	203837
#	217543
#	231806
#	245990
#	258216
#	273741
#
# Disc length: 3789 seconds
#
# Revision: 0
# Processed by: cddbd v1.5.2PL0 Copyright (c) Steve Scherf et al.
# Submitted via: EZCDAudioConverter 2.0.5.1
#
DISCID=1d0ecb16
DTITLE=Jean-Claude Annoux - Anthologie sixties
DYEAR=2008
DGENRE=Chanson francaise
TTITLE0=Aux jeunes loups
TTITLE1=A la premiere Sophie
TTITLE2=Vive la mariee
TTITLE3=Le coeur de la Maria
TTITLE4=Celles que l'on epouse
TTITLE5=Nous etions douze
TTITLE6=Les touristes
TTITLE7=La vie
TTITLE8=Les rentiers de l'amour
TTITLE9=La chemise
TTITLE10=Trois roses rouges
TTITLE11=Je ne sais pas chanter les chansons d'amour
TTITLE12=Voyage a Venise
TTITLE13=Fleur de Marie
TTITLE14=Paris pile et face
TTITLE15=La guerre de Troie
TTITLE16=Aux hommes de bonne volonte
TTITLE17=Gribouille
TTITLE18=La grasse matinee
TTITLE19=Les conquistadors
TTITLE20=Le passage du Pont d'Arcole
TTITLE21=Comme dit mon pere
EXTD=
EXTT0=
EXTT1=
EXTT2=
EXTT3=
EXTT4=
EXTT5=
EXTT6=
EXTT7=
EXTT8=
EXTT9=
EXTT10=
EXTT11=
EXTT12=
EXTT13=
EXTT14=
EXTT15=
EXTT16=
EXTT17=
EXTT18=
EXTT19=
EXTT20=
EXTT21=
PLAYORDER=
